<svg xmlns="http://www.w3.org/2000/svg" version="1.1" xmlns:xlink="http://www.w3.org/1999/xlink" xmlns:svgjs="http://svgjs.dev/svgjs" width="1500" height="1500" viewBox="0 0 1500 1500"><rect width="1500" height="1500" fill="#003366"></rect><g transform="matrix(0.6666666666666666,0,0,0.6666666666666666,248.4427725856698,189.33333333333348)"><svg viewBox="0 0 321 360" data-background-color="#003366" preserveAspectRatio="xMidYMid meet" height="1682" width="1500" xmlns="http://www.w3.org/2000/svg" xmlns:xlink="http://www.w3.org/1999/xlink"><g id="tight-bounds" transform="matrix(1,0,0,1,0.49986999999998716,0)"><svg viewBox="0 0 320 360" height="360" width="320"><g><svg></svg></g><g><svg viewBox="0 0 320 360" height="360" width="320"><g><path transform="translate(-40.79862,-27.54029) scale(4.05392,4.05392)" d="M89 41.809l-4.923-4.923v-6.962l-13.274-13.274h-6.962l-4.923-4.923h-18.772l-4.923 4.923h-6.962l-13.274 13.274v6.962l-4.923 4.923v18.773l4.923 4.923v6.962l13.275 13.273h6.962l4.923 4.923h18.773l4.923-4.923h6.962l13.274-13.274v-6.962l4.921-4.923zM70.345 17.755l12.627 12.627v5.399l-18.026-18.026zM82.972 37.344v27.703l-19.588 19.588h-27.703l-19.589-19.589v-27.702l19.589-19.589h27.703zM40.604 12.832h17.857l3.818 3.818h-25.493zM16.092 30.382l12.627-12.627h5.399l-18.026 18.026zM11.17 60.124v-17.858l3.818-3.818v25.492zM28.719 84.635l-12.627-12.627v-5.399l18.026 18.026zM58.461 89.558h-17.857l-3.818-3.818h25.492zM82.972 72.008l-12.627 12.627h-5.399l18.026-18.026zM87.895 60.124l-3.818 3.818v-25.493l3.818 3.818z" fill="#00e5f3" fill-rule="nonzero" stroke="none" stroke-width="1" stroke-linecap="butt" stroke-linejoin="miter" stroke-miterlimit="10" stroke-dasharray="" stroke-dashoffset="0" font-family="none" font-weight="none" font-size="none" text-anchor="none" style="mix-blend-mode: normal" data-fill-palette-color="tertiary"></path></g><g transform="matrix(1,0,0,1,65.8757601392116,90)"><svg viewBox="0 0 188.2484797215768 180" height="180" width="188.2484797215768"><g><svg viewBox="0 0 209.03999999999996 199.88049866671622" height="180" width="188.2484797215768"><g><rect width="209.03999999999996" height="2.741809720254777" x="0" y="141.40016058735972" fill="#daedef" opacity="1" stroke-width="0" stroke="transparent" fill-opacity="1" class="rect-yte-0" data-fill-palette-color="secondary" rx="1%" id="yte-0" data-palette-color="#daedef"></rect></g><g transform="matrix(1,0,0,1,0.5199999999999818,151.31948266430237)"><svg viewBox="0 0 208 48.56101600241383" height="48.56101600241383" width="208"><g id="textblocktransform"><svg viewBox="0 0 208 48.56101600241383" height="48.56101600241383" width="208" id="textblock"><g><svg viewBox="0 0 208 30.40339702760085" height="30.40339702760085" width="208"><g transform="matrix(1,0,0,1,0,0)"><svg width="208" viewBox="0.88 -43.04 298.95 43.7" height="30.40339702760085" data-palette-color="#c1d4e0"><path d="M2.69 0L23.68 0Q24.54 0 25.01-0.62 25.49-1.25 25.49-2.05L25.49-2.05Q25.49-2.95 25.07-3.63 24.66-4.3 23.73-4.3L23.73-4.3 16.28-4.3 16.28-19.14 24.58-19.14 25.83-14.6Q26.03-13.92 26.53-13.43 27.03-12.94 27.78-12.94L27.78-12.94Q28.61-12.94 29.05-13.49 29.49-14.04 29.49-14.89L29.49-14.89 29.15-21 29.49-26.9Q29.49-27.76 29.05-28.31 28.61-28.86 27.78-28.86L27.78-28.86Q27.03-28.86 26.53-28.37 26.03-27.88 25.83-27.2L25.83-27.2 24.58-22.66 16.28-22.66 16.28-37.55 37.65-37.55 39.79-31.3Q40.11-30.54 40.75-29.99 41.38-29.44 42.29-29.44L42.29-29.44Q43.07-29.44 43.58-29.94 44.09-30.44 44.09-31.25L44.09-31.25Q44.09-31.45 44.06-31.69 44.02-31.93 43.95-32.2L43.95-32.2 42.09-39.94Q41.8-40.8 41.38-41.32 40.97-41.85 40.09-41.85L40.09-41.85 4.69-41.85Q3.83-41.85 3.36-41.22 2.88-40.6 2.88-39.79L2.88-39.79Q2.88-38.89 3.3-38.22 3.71-37.55 4.64-37.55L4.64-37.55 10.6-37.55 10.6-4.3 2.64-4.3Q1.71-4.3 1.29-3.63 0.88-2.95 0.88-2.05L0.88-2.05Q0.88-1.25 1.35-0.62 1.83 0 2.69 0L2.69 0ZM55.91-3.54L55.91-3.54Q59.03-3.54 61.58-5.02 64.13-6.49 65.16-8.64L65.16-8.64 65.16-23.9 61.67-23.05Q61.62-23.02 61.52-23.01 61.42-23 61.3-23L61.3-23Q60.57-23 59.93-23.6 59.3-24.19 59.3-24.95L59.3-24.95Q59.3-25.73 59.67-26.28 60.03-26.83 60.72-27L60.72-27 68.5-28.96Q68.58-28.98 68.69-28.99 68.8-29 68.92-29L68.92-29Q69.48-29 69.82-28.7 70.16-28.39 70.16-27.81L70.16-27.81 70.16-4.64 73.85-4.64Q74.68-4.64 75.12-4.06 75.56-3.49 75.56-2.66L75.56-2.66Q75.56-1.88 75.21-1.33 74.85-0.78 74.17-0.61L74.17-0.61 67.5 0.1Q66.79 0.1 66.37-0.38 65.94-0.85 65.77-2.05L65.77-2.05 65.4-4.44Q63.99-2.34 61.08-0.87 58.18 0.61 55 0.61L55 0.61Q50.66 0.61 48.23-2.16 45.8-4.93 45.8-9.35L45.8-9.35 45.8-23.9 42.31-23.05Q42.26-23.02 42.17-23.01 42.09-23 41.97-23L41.97-23Q41.23-23 40.6-23.6 39.96-24.19 39.96-24.95L39.96-24.95Q39.96-25.73 40.32-26.28 40.67-26.83 41.35-27L41.35-27 49.17-28.96Q49.24-28.98 49.34-28.99 49.44-29 49.56-29L49.56-29Q50.12-29 50.46-28.7 50.8-28.39 50.8-27.81L50.8-27.81 50.8-9.79Q50.8-7.1 52.06-5.32 53.32-3.54 55.91-3.54L55.91-3.54ZM79.83-21.02L79.83-21.02Q79.83-25.73 83.2-27.37 86.57-29 90.4-29L90.4-29Q92.89-29 95.33-27.97 97.77-26.93 98.68-25.32L98.68-25.32 98.7-27.39Q98.7-28.15 99.24-28.6 99.78-29.05 100.53-29.05L100.53-29.05Q101.61-29.05 102.14-28.56 102.68-28.08 102.68-27.15L102.68-27.15 102.58-20.09Q102.49-19.26 101.95-18.84 101.41-18.41 100.58-18.41L100.58-18.41Q99.78-18.41 99.51-18.9 99.24-19.38 98.99-20.29L98.99-20.29Q98.16-22.85 95.56-24.22 92.96-25.59 90.35-25.59L90.35-25.59Q88.11-25.59 86.42-24.71 84.74-23.83 84.74-22.05L84.74-22.05Q84.74-20.51 85.74-19.65 86.74-18.8 88.98-18.24L88.98-18.24 95.23-16.19Q98.51-15.09 101.17-13.4 103.83-11.72 103.83-7.59L103.83-7.59Q103.83-3.54 101.06-1.44 98.29 0.66 93.28 0.66L93.28 0.66Q90.67 0.66 87.54-0.18 84.42-1.03 83.03-2.56L83.03-2.56Q83.03-0.95 82.45-0.48 81.88 0 81.05 0L81.05 0Q80.12 0 79.5-0.42 78.88-0.83 78.88-1.81L78.88-1.81 78.88-10.06Q78.9-10.82 79.46-11.21 80.02-11.6 80.73-11.6L80.73-11.6Q81.81-11.6 82.23-11.1 82.66-10.6 82.88-9.64L82.88-9.64Q83.64-6.32 86.37-4.66 89.11-3 93.01-3L93.01-3Q95.38-3 97.08-3.91 98.77-4.81 98.77-6.86L98.77-6.86Q98.77-8.91 97.8-9.86 96.82-10.82 94.33-11.57L94.33-11.57 87.69-13.65Q84.59-14.62 82.21-16.24 79.83-17.85 79.83-21.02L79.83-21.02ZM116.13-34.84L116.13-34.84Q114.59-34.84 113.51-35.93 112.42-37.01 112.42-38.55L112.42-38.55Q112.42-40.09 113.51-41.17 114.59-42.26 116.13-42.26L116.13-42.26Q117.67-42.26 118.74-41.17 119.82-40.09 119.82-38.55L119.82-38.55Q119.82-37.01 118.74-35.93 117.67-34.84 116.13-34.84L116.13-34.84ZM108.61-2.03L108.61-2.03Q108.61-2.93 109.06-3.58 109.51-4.22 110.47-4.22L110.47-4.22 113.81-4.22 113.81-24 110.32-23.05Q110.27-23.02 110.19-23.01 110.1-23 109.98-23L109.98-23Q109.25-23 108.61-23.6 107.98-24.19 107.98-24.95L107.98-24.95Q107.98-25.73 108.33-26.28 108.68-26.83 109.37-27L109.37-27 117.18-28.96Q117.25-28.98 117.35-28.99 117.45-29 117.57-29L117.57-29Q118.11-29 118.46-28.7 118.82-28.39 118.82-27.86L118.82-27.86 118.82-4.22 122.58-4.22Q123.5-4.22 123.92-3.55 124.33-2.88 124.33-1.98L124.33-1.98Q124.33-1.17 123.86-0.59 123.38 0 122.53 0L122.53 0 110.61 0Q109.59 0 109.1-0.55 108.61-1.1 108.61-2.03L108.61-2.03ZM142.23-24.85L142.23-24.85Q137.59-24.85 135.04-21.85 132.49-18.85 132.49-14.21L132.49-14.21Q132.49-9.55 135.04-6.54 137.59-3.54 142.23-3.54L142.23-3.54Q146.74-3.54 149.21-6.59 151.67-9.64 151.67-14.21L151.67-14.21Q151.67-18.77 149.21-21.81 146.74-24.85 142.23-24.85L142.23-24.85ZM142.23 0.61L142.23 0.61Q135.46 0.61 131.26-3.42 127.07-7.45 127.07-14.21L127.07-14.21Q127.07-21 131.28-25 135.49-29 142.23-29L142.23-29Q148.87-29 152.97-24.94 157.07-20.87 157.07-14.21L157.07-14.21Q157.07-7.54 152.97-3.47 148.87 0.61 142.23 0.61L142.23 0.61ZM179.99-24.85L179.99-24.85Q176.72-24.85 173.78-22.69 170.84-20.53 170.84-17.26L170.84-17.26 170.84-4.3 174.4-4.3Q175.33-4.3 175.73-3.63 176.13-2.95 176.13-2.05L176.13-2.05Q176.13-1.25 175.67-0.62 175.21 0 174.35 0L174.35 0 162.95 0Q161.93 0 161.44-0.59 160.95-1.17 160.95-2.1L160.95-2.1Q160.95-3 161.4-3.65 161.85-4.3 162.8-4.3L162.8-4.3 165.83-4.3 165.83-23.9 162.34-23.05Q162.29-23.02 162.21-23.01 162.12-23 162-23L162-23Q161.27-23 160.63-23.6 160-24.19 160-24.95L160-24.95Q160-25.78 160.35-26.28 160.71-26.78 161.39-27L161.39-27 168.2-28.96Q168.3-28.96 168.32-28.98 168.35-29 168.44-29L168.44-29 168.59-29Q169.1-29 169.47-28.7 169.84-28.39 169.84-27.86L169.84-27.86 170.35-23.24Q171.59-25.49 174.54-27.25 177.48-29 180.9-29L180.9-29Q185.46-29 188.15-26.32 190.83-23.63 190.83-19.04L190.83-19.04 190.83-4.3 193.88-4.3Q194.81-4.3 195.23-3.63 195.64-2.95 195.64-2.05L195.64-2.05Q195.64-1.25 195.17-0.62 194.69 0 193.84 0L193.84 0 181.95 0Q180.92 0 180.43-0.59 179.94-1.17 179.94-2.1L179.94-2.1Q179.94-3 180.4-3.65 180.85-4.3 181.8-4.3L181.8-4.3 185.9-4.3 185.9-18.6Q185.9-21.51 184.42-23.18 182.95-24.85 179.99-24.85L179.99-24.85ZM201.18-17.46L201.18-17.46Q201.18-18.46 201.91-19.2 202.65-19.95 203.67-19.95L203.67-19.95 221.79-19.95Q222.81-19.95 223.54-19.2 224.28-18.46 224.28-17.46L224.28-17.46Q224.28-16.41 223.56-15.67 222.84-14.94 221.79-14.94L221.79-14.94 203.67-14.94Q202.62-14.94 201.9-15.67 201.18-16.41 201.18-17.46L201.18-17.46ZM228.99-2.05L228.99-2.05Q228.99-2.95 229.4-3.63 229.82-4.3 230.74-4.3L230.74-4.3 234.14-4.3 250.3-40.8Q250.67-41.65 251.4-42.35 252.13-43.04 253.3-43.04L253.3-43.04Q254.52-43.04 255.17-42.32 255.82-41.6 256.18-40.7L256.18-40.7 270.86-4.3 275.2-4.3Q276.13-4.3 276.53-3.63 276.94-2.95 276.94-2.05L276.94-2.05Q276.94-1.25 276.47-0.62 276.01 0 275.15 0L275.15 0 259.41 0Q258.55 0 258.08-0.62 257.6-1.25 257.6-2.05L257.6-2.05Q257.6-2.95 258.01-3.63 258.43-4.3 259.36-4.3L259.36-4.3 264.7-4.3 261.09-13.84 243.39-13.84 239.56-4.3 244.1-4.3Q245.03-4.3 245.44-3.63 245.86-2.95 245.86-2.05L245.86-2.05Q245.86-1.25 245.38-0.62 244.9 0 244.05 0L244.05 0 230.79 0Q229.94 0 229.46-0.62 228.99-1.25 228.99-2.05L228.99-2.05ZM252.55-36.6L244.9-17.6 259.7-17.6 252.55-36.6ZM278.74-2.05L278.74-2.05Q278.74-2.95 279.14-3.63 279.55-4.3 280.47-4.3L280.47-4.3 286.43-4.3 286.43-37.55 280.47-37.55Q279.55-37.55 279.14-38.22 278.74-38.89 278.74-39.79L278.74-39.79Q278.74-40.6 279.2-41.22 279.67-41.85 280.52-41.85L280.52-41.85 298.03-41.85Q298.88-41.85 299.36-41.22 299.83-40.6 299.83-39.79L299.83-39.79Q299.83-38.89 299.42-38.22 299-37.55 298.08-37.55L298.08-37.55 292.14-37.55 292.14-4.3 298.08-4.3Q299-4.3 299.42-3.63 299.83-2.95 299.83-2.05L299.83-2.05Q299.83-1.25 299.36-0.62 298.88 0 298.03 0L298.03 0 280.52 0Q279.67 0 279.2-0.62 278.74-1.25 278.74-2.05L278.74-2.05Z" opacity="1" transform="matrix(1,0,0,1,0,0)" fill="#c1d4e0" class="wordmark-text-0" data-fill-palette-color="primary" id="text-0"></path></svg></g></svg></g><g transform="matrix(1,0,0,1,0,37.580909384288745)"><svg viewBox="0 0 208 10.980106618125081" height="10.980106618125081" width="208"><g transform="matrix(1,0,0,1,0,0)"><svg width="208" viewBox="-0.51 -37.5 938.76 49.56" height="10.980106618125081" data-palette-color="#daedef"><path d="M30.59-32.69L40.23-5.64 40.55-5.64Q42.21-10.64 43.26-14.05 44.31-17.46 44.91-19.63 45.51-21.8 45.79-23.07 46.07-24.34 46.13-25.04 46.19-25.73 46.19-26.2L46.19-26.2Q46.19-28.37 45.74-30.14 45.29-31.91 44.95-33.01L44.95-33.01 48.9-34.69Q49.24-34.86 49.51-34.91 49.78-34.96 50.05-34.96L50.05-34.96Q50.95-34.96 51.44-34.12 51.93-33.28 51.93-31.86L51.93-31.86Q51.93-29.86 51.11-26.42 50.29-22.97 48.84-18.63 47.39-14.28 45.46-9.5 43.53-4.71 41.28 0L41.28 0 38.33 0Q37.18 0 36.52-0.4 35.86-0.81 35.45-2L35.45-2 28.83-20.46Q28.39-18.53 27.56-15.93 26.73-13.33 25.66-10.49 24.58-7.64 23.4-4.92 22.22-2.2 21.09 0L21.09 0 17.99 0Q16.82 0 16.19-0.4 15.55-0.81 15.09-2L15.09-2 4.59-30.44 0.29-28.54-0.51-30.3Q0.29-31.05 1.68-32.15 3.08-33.25 4.57-34.11 6.05-34.96 7.18-34.96L7.18-34.96Q7.93-34.96 8.68-34.57 9.42-34.18 9.74-33.25L9.74-33.25 19.95-5.64 20.24-5.64Q21.41-8.35 22.39-11.35 23.36-14.36 24.15-17.25 24.93-20.14 25.5-22.63 26.07-25.12 26.44-26.81L26.44-26.81 26.25-27.44Q25.27-30.37 24.52-31.77 23.78-33.18 23.44-33.69L23.44-33.69Q24.27-34.4 25.37-34.68 26.46-34.96 27.29-34.96L27.29-34.96Q28.59-34.96 29.35-34.55 30.1-34.13 30.59-32.69L30.59-32.69ZM56.03-34.64L56.03-36.5Q56.71-36.82 58.08-37.04 59.45-37.26 61.02-37.38 62.6-37.5 63.86-37.5L63.86-37.5Q64.89-37.5 65.43-37.34 65.96-37.18 65.96-36.21L65.96-36.21 65.96-22.95Q66.18-23 67.15-23.44 68.11-23.88 69.54-24.43 70.97-24.98 72.65-25.39 74.34-25.81 76.02-25.81L76.02-25.81Q78.95-25.81 80.45-24.8 81.96-23.8 82.49-22.06 83.03-20.31 83.03-18.04L83.03-18.04 83.03-2.44 87.28-2.44 87.28-0.61Q86.45-0.15 84.54 0.15 82.64 0.44 80.88 0.44L80.88 0.44Q79.39 0.44 78.38 0.01 77.37-0.42 77.37-1.9L77.37-1.9 77.37-17.55Q77.37-20.02 76.72-21.11 76.07-22.19 73.97-22.19L73.97-22.19Q72.95-22.19 71.65-21.98 70.36-21.78 69.13-21.51 67.89-21.24 67.01-21.02 66.14-20.8 65.96-20.75L65.96-20.75 65.96-7.35Q65.96-4.35 66.25-2.69 66.53-1.03 66.67-0.34L66.67-0.34Q65.99 0.02 64.98 0.23 63.96 0.44 63.18 0.44L63.18 0.44Q61.94 0.44 61.13-0.06 60.32-0.56 60.32-1.9L60.32-1.9 60.32-34.64 56.03-34.64ZM91.62-12.5L91.62-12.5Q91.62-16.38 93.27-19.37 94.92-22.36 98.01-24.06 101.09-25.76 105.41-25.76L105.41-25.76Q108.66-25.76 110.99-24.41 113.33-23.07 114.57-20.9 115.82-18.73 115.82-16.21L115.82-16.21Q115.82-15.06 115.52-13.92 115.23-12.77 114.41-12.01 113.59-11.25 111.96-11.25L111.96-11.25 97.36-11.25Q97.85-6.86 100.83-4.53 103.8-2.2 108.1-2.2L108.1-2.2Q111.1-2.2 114.35-3.25L114.35-3.25 115.16-1.61Q113.18-0.27 110.64 0.34 108.1 0.95 105.66 0.95L105.66 0.95Q102.97 0.95 100.46 0.11 97.94-0.73 95.95-2.42 93.96-4.1 92.79-6.62 91.62-9.13 91.62-12.5ZM97.31-14.26L109.96-14.26Q110.1-14.75 110.15-15.23 110.2-15.72 110.2-16.26L110.2-16.26Q110.2-17.87 109.5-19.43 108.81-21 107.45-22.02 106.1-23.05 104.12-23.05L104.12-23.05Q101.63-23.05 100.18-21.81 98.73-20.58 98.08-18.58 97.43-16.58 97.31-14.26L97.31-14.26ZM120.21-22.51L120.21-24.34Q120.89-24.66 122.26-24.88 123.63-25.1 125.21-25.22 126.8-25.34 128.07-25.34L128.07-25.34Q129.07-25.34 129.62-25.18 130.17-25.02 130.17-24.05L130.17-24.05 130.17-18.19 133.27-22.61Q135.47-25.76 139.1-25.76L139.1-25.76Q139.54-25.76 140.24-25.67 140.93-25.59 141.5-25.29 142.06-25 142.06-24.39L142.06-24.39Q142.06-24.15 142.01-24L142.01-24 140.96-20.56Q140.03-20.85 139.29-20.97 138.54-21.09 137.91-21.09L137.91-21.09Q136.59-21.09 135.39-20.36 134.2-19.63 133.2-18.58 132.19-17.53 131.43-16.52 130.66-15.5 130.17-14.94L130.17-14.94 130.17-7.35Q130.17-4.35 130.44-2.69 130.71-1.03 130.85-0.34L130.85-0.34Q130.19 0.02 129.17 0.23 128.14 0.44 127.36 0.44L127.36 0.44Q126.12 0.44 125.31-0.06 124.5-0.56 124.5-1.9L124.5-1.9 124.5-22.51 120.21-22.51ZM145.3-12.5L145.3-12.5Q145.3-16.38 146.95-19.37 148.6-22.36 151.69-24.06 154.78-25.76 159.1-25.76L159.1-25.76Q162.34-25.76 164.68-24.41 167.01-23.07 168.25-20.9 169.5-18.73 169.5-16.21L169.5-16.21Q169.5-15.06 169.2-13.92 168.91-12.77 168.09-12.01 167.28-11.25 165.64-11.25L165.64-11.25 151.04-11.25Q151.53-6.86 154.51-4.53 157.49-2.2 161.78-2.2L161.78-2.2Q164.78-2.2 168.03-3.25L168.03-3.25 168.84-1.61Q166.86-0.27 164.32 0.34 161.78 0.95 159.34 0.95L159.34 0.95Q156.66 0.95 154.14 0.11 151.63-0.73 149.64-2.42 147.65-4.1 146.47-6.62 145.3-9.13 145.3-12.5ZM150.99-14.26L163.64-14.26Q163.78-14.75 163.83-15.23 163.88-15.72 163.88-16.26L163.88-16.26Q163.88-17.87 163.19-19.43 162.49-21 161.14-22.02 159.78-23.05 157.8-23.05L157.8-23.05Q155.31-23.05 153.86-21.81 152.41-20.58 151.76-18.58 151.11-16.58 150.99-14.26L150.99-14.26ZM189.07-17.14L189.07-17.14Q189.07-22.75 191.12-26.84 193.17-30.93 197.2-33.17 201.23-35.4 207.16-35.4L207.16-35.4Q208.53-35.4 210.36-35.24 212.19-35.08 213.94-34.72 215.68-34.35 216.83-33.74 217.98-33.13 217.98-32.2L217.98-32.2Q217.98-31.76 217.69-31.25L217.69-31.25 215.63-27.81Q214.56-28.42 212.97-29.44 211.39-30.47 209.43-31.31 207.48-32.15 205.28-32.15L205.28-32.15Q202.4-32.15 200.49-30.82 198.57-29.49 197.46-27.33 196.35-25.17 195.88-22.63 195.42-20.09 195.42-17.7L195.42-17.7Q195.42-13.77 196.85-10.38 198.28-6.98 201.16-4.9 204.04-2.81 208.38-2.81L208.38-2.81Q210.19-2.81 211.98-3.11 213.78-3.42 215.24-3.83 216.71-4.25 217.59-4.55 218.47-4.86 218.47-4.86L218.47-4.86 219.47-2.95Q216.73-0.81 213.4 0.07 210.07 0.95 206.58 0.95L206.58 0.95Q201.23 0.95 197.3-1.26 193.37-3.47 191.22-7.53 189.07-11.6 189.07-17.14ZM222.39-22.51L222.39-24.34Q223.08-24.66 224.45-24.88 225.81-25.1 227.4-25.22 228.99-25.34 230.26-25.34L230.26-25.34Q231.26-25.34 231.81-25.18 232.36-25.02 232.36-24.05L232.36-24.05 232.36-18.19 235.46-22.61Q237.65-25.76 241.29-25.76L241.29-25.76Q241.73-25.76 242.43-25.67 243.12-25.59 243.68-25.29 244.25-25 244.25-24.39L244.25-24.39Q244.25-24.15 244.2-24L244.2-24 243.15-20.56Q242.22-20.85 241.47-20.97 240.73-21.09 240.09-21.09L240.09-21.09Q238.78-21.09 237.58-20.36 236.38-19.63 235.38-18.58 234.38-17.53 233.61-16.52 232.84-15.5 232.36-14.94L232.36-14.94 232.36-7.35Q232.36-4.35 232.62-2.69 232.89-1.03 233.04-0.34L233.04-0.34Q232.38 0.02 231.35 0.23 230.33 0.44 229.55 0.44L229.55 0.44Q228.3 0.44 227.5-0.06 226.69-0.56 226.69-1.9L226.69-1.9 226.69-22.51 222.39-22.51ZM247.49-12.5L247.49-12.5Q247.49-16.38 249.14-19.37 250.79-22.36 253.87-24.06 256.96-25.76 261.28-25.76L261.28-25.76Q264.53-25.76 266.86-24.41 269.19-23.07 270.44-20.9 271.68-18.73 271.68-16.21L271.68-16.21Q271.68-15.06 271.39-13.92 271.1-12.77 270.28-12.01 269.46-11.25 267.83-11.25L267.83-11.25 253.23-11.25Q253.72-6.86 256.69-4.53 259.67-2.2 263.97-2.2L263.97-2.2Q266.97-2.2 270.22-3.25L270.22-3.25 271.02-1.61Q269.05-0.27 266.51 0.34 263.97 0.95 261.53 0.95L261.53 0.95Q258.84 0.95 256.33 0.11 253.81-0.73 251.82-2.42 249.83-4.1 248.66-6.62 247.49-9.13 247.49-12.5ZM253.18-14.26L265.82-14.26Q265.97-14.75 266.02-15.23 266.07-15.72 266.07-16.26L266.07-16.26Q266.07-17.87 265.37-19.43 264.68-21 263.32-22.02 261.97-23.05 259.99-23.05L259.99-23.05Q257.5-23.05 256.05-21.81 254.59-20.58 253.95-18.58 253.3-16.58 253.18-14.26L253.18-14.26ZM293.41-1.9L293.41-2.15Q293.41-2.17 292.71-1.73 292.02-1.29 290.83-0.71 289.65-0.12 288.21 0.32 286.77 0.76 285.26 0.76L285.26 0.76Q283.13 0.76 281.33-0.01 279.52-0.78 278.42-2.4 277.32-4.03 277.32-6.54L277.32-6.54Q277.32-9.35 278.94-11.04 280.57-12.72 283.42-13.46 286.28-14.21 289.97-14.21L289.97-14.21 293.41-14.21 293.41-16.04Q293.41-17.94 293.17-19.58 292.92-21.22 292.1-22.2 291.29-23.19 289.55-23.19L289.55-23.19Q287.92-23.19 286.24-22.44 284.57-21.68 283.06-20.61 281.54-19.53 280.32-18.55L280.32-18.55 278.32-21.24Q277.96-21.68 277.96-22.14L277.96-22.14Q277.96-22.95 278.96-23.61 279.96-24.27 281.52-24.76 283.08-25.24 284.83-25.5 286.57-25.76 288.06-25.76L288.06-25.76Q291.07-25.76 293.57-24.79 296.07-23.83 297.57-21.69 299.07-19.56 299.07-16.04L299.07-16.04 299.07-2.44 303.32-2.44 303.32-0.61Q302.49-0.15 300.59 0.15 298.68 0.44 296.9 0.44L296.9 0.44Q295.71 0.44 294.59 0.04 293.48-0.37 293.41-1.9L293.41-1.9ZM286.96-2.86L286.96-2.86Q287.82-2.86 288.92-3.08 290.02-3.3 291.04-3.6 292.07-3.91 292.74-4.13 293.41-4.35 293.41-4.35L293.41-4.35 293.41-11.21 289.31-11.21Q288.09-11.21 286.59-10.88 285.08-10.55 284-9.61 282.91-8.67 282.91-6.81L282.91-6.81Q282.91-5.08 283.96-3.97 285.01-2.86 286.96-2.86ZM325.22-3.39L326-1.71Q324.29-0.66 322.5 0.05 320.7 0.76 317.97 0.76L317.97 0.76Q314.4 0.76 312.33-1.37 310.25-3.49 310.25-7.25L310.25-7.25 310.25-22 305.2-22 305.2-23.1Q305.2-24.19 305.68-24.6 306.15-25 307.2-25L307.2-25 310.25-25 310.25-30.81Q310.25-32.15 311.06-32.63 311.86-33.11 313.11-33.11L313.11-33.11Q313.89-33.11 314.92-32.92 315.94-32.74 316.6-32.35L316.6-32.35Q316.45-31.67 316.19-29.98 315.92-28.3 315.92-25L315.92-25 324.41-25 324.41-23.95Q324.41-22.88 323.94-22.44 323.46-22 322.41-22L322.41-22 315.92-22 315.92-7.69Q315.92-2.15 319.97-2.15L319.97-2.15Q321.19-2.15 322.41-2.49 323.63-2.83 324.44-3.15 325.24-3.47 325.22-3.39L325.22-3.39ZM332.27-33.5L332.27-33.5Q332.27-34.89 333.29-35.84 334.3-36.79 335.71-36.79L335.71-36.79Q337.16-36.79 338.16-35.84 339.16-34.89 339.16-33.5L339.16-33.5Q339.16-32.15 338.16-31.2 337.16-30.25 335.71-30.25L335.71-30.25Q334.3-30.25 333.29-31.2 332.27-32.15 332.27-33.5ZM338.52-24.15L338.52-2.44 342.77-2.44 342.77-0.61Q341.94-0.15 340.04 0.15 338.13 0.44 336.37 0.44L336.37 0.44Q334.88 0.44 333.87 0.01 332.86-0.42 332.86-1.9L332.86-1.9 332.86-22.61 328.56-22.61 328.56-24.44Q329.24-24.76 330.61-24.98 331.98-25.2 333.57-25.32 335.15-25.44 336.42-25.44L336.42-25.44Q337.42-25.44 337.97-25.28 338.52-25.12 338.52-24.15L338.52-24.15ZM354.58-24.29L354.58-24.29Q354.61-24.22 355.16-22.77 355.71-21.31 356.56-19.07 357.42-16.82 358.39-14.31 359.37-11.79 360.26-9.52 361.15-7.25 361.79-5.79 362.42-4.32 362.57-4.2L362.57-4.2Q363.37-5.47 364.25-7.25 365.13-9.03 365.9-11.02 366.67-13.01 367.15-14.95 367.62-16.89 367.62-18.51L367.62-18.51Q367.62-20.24 367.17-21.44 366.72-22.63 366.38-23.46L366.38-23.46 369.57-25.05Q370.43-25.44 370.97-25.44L370.97-25.44Q371.87-25.44 372.2-24.63 372.53-23.83 372.53-23.05L372.53-23.05Q372.53-21.51 371.88-19.3 371.23-17.09 370.17-14.51 369.11-11.94 367.85-9.3 366.6-6.67 365.36-4.26 364.13-1.86 363.13 0L363.13 0 360.57 0Q359.74 0 358.97-0.45 358.2-0.9 357.78-1.9L357.78-1.9 349.68-20.95 345.82-19.24 345.06-20.95Q345.65-21.46 346.71-22.2 347.77-22.95 348.99-23.69 350.21-24.44 351.32-24.94 352.44-25.44 353.12-25.44L353.12-25.44Q353.58-25.44 353.96-25.18 354.34-24.93 354.58-24.29ZM379.92-33.5L379.92-33.5Q379.92-34.89 380.94-35.84 381.95-36.79 383.37-36.79L383.37-36.79Q384.81-36.79 385.81-35.84 386.81-34.89 386.81-33.5L386.81-33.5Q386.81-32.15 385.81-31.2 384.81-30.25 383.37-30.25L383.37-30.25Q381.95-30.25 380.94-31.2 379.92-32.15 379.92-33.5ZM386.17-24.15L386.17-2.44 390.42-2.44 390.42-0.61Q389.59-0.15 387.69 0.15 385.78 0.44 384.03 0.44L384.03 0.44Q382.54 0.44 381.52 0.01 380.51-0.42 380.51-1.9L380.51-1.9 380.51-22.61 376.21-22.61 376.21-24.44Q376.9-24.76 378.26-24.98 379.63-25.2 381.22-25.32 382.8-25.44 384.07-25.44L384.07-25.44Q385.07-25.44 385.62-25.28 386.17-25.12 386.17-24.15L386.17-24.15ZM413.15-3.39L413.93-1.71Q412.22-0.66 410.43 0.05 408.63 0.76 405.9 0.76L405.9 0.76Q402.33 0.76 400.26-1.37 398.18-3.49 398.18-7.25L398.18-7.25 398.18-22 393.13-22 393.13-23.1Q393.13-24.19 393.61-24.6 394.08-25 395.13-25L395.13-25 398.18-25 398.18-30.81Q398.18-32.15 398.99-32.63 399.79-33.11 401.04-33.11L401.04-33.11Q401.82-33.11 402.85-32.92 403.87-32.74 404.53-32.35L404.53-32.35Q404.38-31.67 404.12-29.98 403.85-28.3 403.85-25L403.85-25 412.34-25 412.34-23.95Q412.34-22.88 411.87-22.44 411.39-22 410.34-22L410.34-22 403.85-22 403.85-7.69Q403.85-2.15 407.9-2.15L407.9-2.15Q409.12-2.15 410.34-2.49 411.56-2.83 412.37-3.15 413.17-3.47 413.15-3.39L413.15-3.39ZM441.83-25.44L441.83-25.44Q442.76-25.44 443.07-24.56 443.37-23.68 443.37-22.85L443.37-22.85Q443.37-20.7 442.5-17.75 441.64-14.79 440.28-11.57 438.93-8.35 437.43-5.32 435.92-2.29 434.63 0L434.63 0Q433.46 2.05 432.07 4.16 430.68 6.27 428.92 8.07 427.16 9.86 424.9 10.96 422.64 12.06 419.79 12.06L419.79 12.06Q419.3 12.06 418.37 11.96 417.44 11.87 416.69 11.56 415.93 11.25 415.93 10.64L415.93 10.64Q415.93 10.55 416.03 10.25L416.03 10.25 417.37 6.64Q419.18 7.18 420.54 7.59 421.91 8.01 423.08 8.01L423.08 8.01Q424.47 8.01 425.84 6.93 427.21 5.86 428.33 4.38 429.45 2.91 430.09 1.66L430.09 1.66 420.23-20.95 416.54-19.31 415.64-20.95Q416.44-21.68 417.7-22.74 418.96-23.8 420.42-24.62 421.89-25.44 423.28-25.44L423.28-25.44Q423.89-25.44 424.43-25.18 424.96-24.93 425.13-24.29L425.13-24.29Q425.16-24.24 425.69-22.9 426.23-21.56 427.1-19.43 427.97-17.31 428.97-14.89 429.97-12.48 430.9-10.23 431.82-7.98 432.48-6.4 433.14-4.81 433.34-4.39L433.34-4.39Q434.46-6.45 435.66-9.02 436.85-11.6 437.67-14.15 438.49-16.7 438.49-18.65L438.49-18.65Q438.49-21.36 437.22-23.46L437.22-23.46 440.44-25.05Q441.3-25.44 441.83-25.44ZM469.15-3L469.15-3Q468.39-1.54 466.93-0.49 465.46 0.56 463.7 0.56L463.7 0.56Q463.07 0.56 462.62 0.24 462.16-0.07 461.9-0.85L461.9-0.85 460.9-3.86Q461.26-4.03 462.03-4.28 462.8-4.54 463.67-5.07 464.53-5.59 465.14-6.54L465.14-6.54Q465.68-7.35 466.19-9.53 466.71-11.72 467.17-14.7 467.63-17.68 467.99-20.87 468.34-24.07 468.56-26.99 468.78-29.91 468.81-31.91L468.81-31.91 464.04-31.91 464.04-33.84Q464.48-34.08 465.57-34.34 466.66-34.59 467.95-34.78 469.24-34.96 470.25-34.96L470.25-34.96Q472.25-34.96 473.22-34.75 474.2-34.55 474.81-33.64L474.81-33.64Q476.28-30.3 477.73-26.49 479.18-22.68 480.49-18.99 481.79-15.31 482.79-12.28 483.8-9.25 484.37-7.45 484.94-5.64 484.94-5.64L484.94-5.64Q487.34-13.01 489.39-18.99 491.44-24.98 492.95-28.94 494.46-32.91 495.2-34.16L495.2-34.16Q495.17-34.2 495.83-34.4 496.49-34.59 497.41-34.78 498.32-34.96 499.05-34.96L499.05-34.96Q500.2-34.96 500.59-34.5 500.98-34.03 501.15-33.11L501.15-33.11 505.11-3.3 509.75-4 510.19-2.2Q509.5-1.54 508.09-0.88 506.67-0.22 505.05 0.22 503.42 0.66 502.06 0.66L502.06 0.66Q501.23 0.66 500.43 0.29 499.64-0.07 499.49-1.2L499.49-1.2 496.44-26.25Q494.2-19.78 492.57-15.28 490.95-10.79 489.84-7.91 488.73-5.03 488.03-3.39 487.34-1.76 486.98-1.04 486.63-0.32 486.49-0.16 486.36 0 486.36 0L486.36 0 483.7 0Q482.55 0 481.9-0.4 481.26-0.81 480.79-2L480.79-2Q477.59-10.52 475.76-15.84 473.93-21.17 473.16-23.66 472.39-26.15 472.39-26.15L472.39-26.15Q472.22-23.05 471.99-19.68 471.76-16.31 471.39-13.11 471.03-9.91 470.49-7.28 469.95-4.64 469.15-3ZM513.53-12.5L513.53-12.5Q513.53-16.38 515.18-19.37 516.83-22.36 519.91-24.06 523-25.76 527.32-25.76L527.32-25.76Q530.57-25.76 532.9-24.41 535.23-23.07 536.48-20.9 537.72-18.73 537.72-16.21L537.72-16.21Q537.72-15.06 537.43-13.92 537.14-12.77 536.32-12.01 535.5-11.25 533.87-11.25L533.87-11.25 519.27-11.25Q519.75-6.86 522.73-4.53 525.71-2.2 530.01-2.2L530.01-2.2Q533.01-2.2 536.26-3.25L536.26-3.25 537.06-1.61Q535.09-0.27 532.55 0.34 530.01 0.95 527.57 0.95L527.57 0.95Q524.88 0.95 522.37 0.11 519.85-0.73 517.86-2.42 515.87-4.1 514.7-6.62 513.53-9.13 513.53-12.5ZM519.22-14.26L531.86-14.26Q532.01-14.75 532.06-15.23 532.11-15.72 532.11-16.26L532.11-16.26Q532.11-17.87 531.41-19.43 530.72-21 529.36-22.02 528.01-23.05 526.03-23.05L526.03-23.05Q523.54-23.05 522.09-21.81 520.63-20.58 519.99-18.58 519.34-16.58 519.22-14.26L519.22-14.26ZM543.34-12.5L543.34-12.5Q543.34-16.38 544.98-19.37 546.63-22.36 549.72-24.06 552.81-25.76 557.13-25.76L557.13-25.76Q560.38-25.76 562.71-24.41 565.04-23.07 566.29-20.9 567.53-18.73 567.53-16.21L567.53-16.21Q567.53-15.06 567.24-13.92 566.94-12.77 566.13-12.01 565.31-11.25 563.67-11.25L563.67-11.25 549.07-11.25Q549.56-6.86 552.54-4.53 555.52-2.2 559.82-2.2L559.82-2.2Q562.82-2.2 566.07-3.25L566.07-3.25 566.87-1.61Q564.89-0.27 562.35 0.34 559.82 0.95 557.37 0.95L557.37 0.95Q554.69 0.95 552.17 0.11 549.66-0.73 547.67-2.42 545.68-4.1 544.51-6.62 543.34-9.13 543.34-12.5ZM549.02-14.26L561.67-14.26Q561.82-14.75 561.87-15.23 561.92-15.72 561.92-16.26L561.92-16.26Q561.92-17.87 561.22-19.43 560.52-21 559.17-22.02 557.81-23.05 555.84-23.05L555.84-23.05Q553.35-23.05 551.89-21.81 550.44-20.58 549.79-18.58 549.15-16.58 549.02-14.26L549.02-14.26ZM591.38-3.39L592.16-1.71Q590.45-0.66 588.66 0.05 586.86 0.76 584.13 0.76L584.13 0.76Q580.57 0.76 578.49-1.37 576.41-3.49 576.41-7.25L576.41-7.25 576.41-22 571.36-22 571.36-23.1Q571.36-24.19 571.84-24.6 572.31-25 573.36-25L573.36-25 576.41-25 576.41-30.81Q576.41-32.15 577.22-32.63 578.03-33.11 579.27-33.11L579.27-33.11Q580.05-33.11 581.08-32.92 582.1-32.74 582.76-32.35L582.76-32.35Q582.62-31.67 582.35-29.98 582.08-28.3 582.08-25L582.08-25 590.57-25 590.57-23.95Q590.57-22.88 590.1-22.44 589.62-22 588.57-22L588.57-22 582.08-22 582.08-7.69Q582.08-2.15 586.13-2.15L586.13-2.15Q587.35-2.15 588.57-2.49 589.79-2.83 590.6-3.15 591.41-3.47 591.38-3.39L591.38-3.39ZM595.87-3.2L597.82-5.91Q598.7-5.27 600.06-4.32 601.41-3.37 603.06-2.64 604.71-1.9 606.42-1.9L606.42-1.9Q608.03-1.9 609.3-2.84 610.57-3.78 610.57-5.49L610.57-5.49Q610.57-6.84 609.49-7.75 608.42-8.67 606.98-9.31 605.54-9.96 604.42-10.45L604.42-10.45Q602.51-11.3 600.67-12.28 598.82-13.26 597.62-14.78 596.41-16.31 596.41-18.8L596.41-18.8Q596.41-21.31 598.01-22.84 599.61-24.37 602-25.06 604.39-25.76 606.81-25.76L606.81-25.76Q608.32-25.76 609.98-25.57 611.64-25.39 612.8-24.98 613.96-24.56 613.96-23.85L613.96-23.85Q613.96-23.68 613.81-23.34L613.81-23.34 612.15-20.14Q611.54-20.56 610.36-21.2 609.18-21.85 607.7-22.38 606.22-22.9 604.66-22.9L604.66-22.9Q602.97-22.9 601.9-22.12 600.83-21.34 600.83-19.9L600.83-19.9Q600.83-18.41 601.9-17.41 602.97-16.41 604.66-15.66 606.34-14.92 608.22-14.21 610.1-13.5 611.79-12.59 613.47-11.67 614.55-10.33 615.62-8.98 615.62-6.96L615.62-6.96Q615.62-4.81 614.71-3.33 613.79-1.86 612.29-0.95 610.79-0.05 608.98 0.35 607.17 0.76 605.42 0.76L605.42 0.76Q603.9 0.76 602.22 0.43 600.53 0.1 599.06-0.42 597.58-0.93 596.65-1.5 595.72-2.08 595.72-2.59L595.72-2.59Q595.72-2.91 595.87-3.2L595.87-3.2ZM638-1.9L638-31.91 633.29-31.91 633.29-33.84Q634.05-34.23 636.1-34.59 638.15-34.96 640.54-34.96L640.54-34.96Q642.5-34.96 643.12-34.75 643.74-34.55 643.74-33.69L643.74-33.69 643.74-2.81 648.36-2.81 648.36-0.71Q647.5-0.24 645.47 0.1 643.45 0.44 641.5 0.44L641.5 0.44Q640.01 0.44 639 0.01 638-0.42 638-1.9L638-1.9ZM655.97-1.9L655.97-22.56 651.67-22.56 651.67-24.39Q652.36-24.71 653.72-24.93 655.09-25.15 656.68-25.27 658.27-25.39 659.53-25.39L659.53-25.39Q660.54-25.39 661.09-25.23 661.63-25.07 661.63-24.1L661.63-24.1 661.63-22.9Q662.12-23.07 663.69-23.77 665.25-24.46 667.43-25.11 669.62-25.76 671.94-25.76L671.94-25.76Q674.77-25.76 676.21-24.74 677.65-23.73 678.16-21.98 678.68-20.24 678.68-17.99L678.68-17.99 678.68-2.44 682.92-2.44 682.92-0.61Q682.09-0.15 680.19 0.15 678.28 0.44 676.53 0.44L676.53 0.44Q675.04 0.44 674.04 0.01 673.04-0.42 673.04-1.9L673.04-1.9 673.04-17.5Q673.04-19.97 672.38-21.06 671.72-22.14 669.62-22.14L669.62-22.14Q668.62-22.14 667.31-21.94 666-21.73 664.75-21.46 663.49-21.19 662.62-20.97 661.76-20.75 661.63-20.7L661.63-20.7 661.63-7.35Q661.63-4.35 661.9-2.69 662.17-1.03 662.32-0.34L662.32-0.34Q661.66 0.02 660.63 0.23 659.61 0.44 658.83 0.44L658.83 0.44Q657.58 0.44 656.78-0.06 655.97-0.56 655.97-1.9L655.97-1.9ZM705.55-3.39L706.33-1.71Q704.62-0.66 702.83 0.05 701.04 0.76 698.3 0.76L698.3 0.76Q694.74 0.76 692.66-1.37 690.59-3.49 690.59-7.25L690.59-7.25 690.59-22 685.53-22 685.53-23.1Q685.53-24.19 686.01-24.6 686.49-25 687.54-25L687.54-25 690.59-25 690.59-30.81Q690.59-32.15 691.39-32.63 692.2-33.11 693.44-33.11L693.44-33.11Q694.22-33.11 695.25-32.92 696.28-32.74 696.93-32.35L696.93-32.35Q696.79-31.67 696.52-29.98 696.25-28.3 696.25-25L696.25-25 704.75-25 704.75-23.95Q704.75-22.88 704.27-22.44 703.79-22 702.75-22L702.75-22 696.25-22 696.25-7.69Q696.25-2.15 700.3-2.15L700.3-2.15Q701.52-2.15 702.75-2.49 703.97-2.83 704.77-3.15 705.58-3.47 705.55-3.39L705.55-3.39ZM708.97-12.5L708.97-12.5Q708.97-16.38 710.62-19.37 712.26-22.36 715.35-24.06 718.44-25.76 722.76-25.76L722.76-25.76Q726.01-25.76 728.34-24.41 730.67-23.07 731.92-20.9 733.16-18.73 733.16-16.21L733.16-16.21Q733.16-15.06 732.87-13.92 732.58-12.77 731.76-12.01 730.94-11.25 729.31-11.25L729.31-11.25 714.71-11.25Q715.19-6.86 718.17-4.53 721.15-2.2 725.45-2.2L725.45-2.2Q728.45-2.2 731.7-3.25L731.7-3.25 732.5-1.61Q730.53-0.27 727.99 0.34 725.45 0.95 723.01 0.95L723.01 0.95Q720.32 0.95 717.81 0.11 715.29-0.73 713.3-2.42 711.31-4.1 710.14-6.62 708.97-9.13 708.97-12.5ZM714.66-14.26L727.3-14.26Q727.45-14.75 727.5-15.23 727.55-15.72 727.55-16.26L727.55-16.26Q727.55-17.87 726.85-19.43 726.16-21 724.8-22.02 723.45-23.05 721.47-23.05L721.47-23.05Q718.98-23.05 717.53-21.81 716.07-20.58 715.43-18.58 714.78-16.58 714.66-14.26L714.66-14.26ZM746.69-36.21L746.69-2.44 750.93-2.44 750.93-0.61Q750.1-0.15 748.2 0.15 746.29 0.44 744.54 0.44L744.54 0.44Q743.05 0.44 742.05 0.01 741.05-0.42 741.05-1.9L741.05-1.9 741.05-34.64 736.72-34.64 736.72-36.5Q737.41-36.82 738.79-37.04 740.17-37.26 741.74-37.38 743.32-37.5 744.59-37.5L744.59-37.5Q745.59-37.5 746.14-37.34 746.69-37.18 746.69-36.21L746.69-36.21ZM763.31-36.21L763.31-2.44 767.56-2.44 767.56-0.61Q766.73-0.15 764.82 0.15 762.92 0.44 761.16 0.44L761.16 0.44Q759.67 0.44 758.67 0.01 757.67-0.42 757.67-1.9L757.67-1.9 757.67-34.64 753.35-34.64 753.35-36.5Q754.03-36.82 755.41-37.04 756.79-37.26 758.37-37.38 759.94-37.5 761.21-37.5L761.21-37.5Q762.21-37.5 762.76-37.34 763.31-37.18 763.31-36.21L763.31-36.21ZM774.51-33.5L774.51-33.5Q774.51-34.89 775.53-35.84 776.54-36.79 777.95-36.79L777.95-36.79Q779.4-36.79 780.4-35.84 781.4-34.89 781.4-33.5L781.4-33.5Q781.4-32.15 780.4-31.2 779.4-30.25 777.95-30.25L777.95-30.25Q776.54-30.25 775.53-31.2 774.51-32.15 774.51-33.5ZM780.76-24.15L780.76-2.44 785.01-2.44 785.01-0.61Q784.18-0.15 782.28 0.15 780.37 0.44 778.61 0.44L778.61 0.44Q777.12 0.44 776.11 0.01 775.1-0.42 775.1-1.9L775.1-1.9 775.1-22.61 770.8-22.61 770.8-24.44Q771.49-24.76 772.85-24.98 774.22-25.2 775.81-25.32 777.39-25.44 778.66-25.44L778.66-25.44Q779.66-25.44 780.21-25.28 780.76-25.12 780.76-24.15L780.76-24.15ZM792.43 3.3L792.43 3.3Q794.24 6.01 796.76 7.51 799.29 9.01 802.98 9.01L802.98 9.01Q803.93 9.01 805.13 8.86 806.32 8.72 807.42 8.31 808.52 7.91 809.24 7.15 809.96 6.4 809.96 5.2L809.96 5.2Q809.96 4.13 808.93 3.52 807.91 2.91 806.21 2.56 804.51 2.22 802.49 1.97 800.46 1.71 798.44 1.34 796.41 0.98 794.71 0.33 793.02-0.32 791.99-1.45 790.97-2.59 790.97-4.39L790.97-4.39Q790.97-5.71 791.58-6.48 792.19-7.25 793.06-7.74 793.94-8.23 794.72-8.64L794.72-8.64Q792.58-9.86 791.34-11.84 790.11-13.82 790.11-16.41L790.11-16.41Q790.11-19.31 791.64-21.4 793.16-23.49 795.77-24.62 798.39-25.76 801.66-25.76L801.66-25.76Q804.73-25.76 807.26-24.72 809.79-23.68 811.33-21.8L811.33-21.8 812.77-23.61Q814.38-25.59 815.45-26.17 816.53-26.76 817.87-26.76L817.87-26.76Q818.5-26.76 819.33-26.38 820.16-26 820.16-25.15L820.16-25.15 820.16-21.85Q817.92-21.85 816.54-21.78 815.16-21.7 814.24-21.3 813.33-20.9 812.42-19.95L812.42-19.95Q812.79-19.12 813-18.26 813.21-17.41 813.21-16.36L813.21-16.36Q813.21-13.48 811.69-11.38 810.18-9.28 807.57-8.14 804.95-7.01 801.66-7.01L801.66-7.01Q799.12-7.01 796.87-7.69L796.87-7.69Q794.87-6.67 794.87-5.54L794.87-5.54Q794.87-4.42 795.97-3.87 797.07-3.32 798.88-3.06 800.68-2.81 802.84-2.62 805-2.44 807.18-2.12 809.35-1.81 811.16-1.11 812.96-0.42 814.06 0.87 815.16 2.15 815.16 4.3L815.16 4.3Q815.16 6.88 813.29 8.61 811.42 10.33 808.47 11.17 805.52 12.01 802.27 12.01L802.27 12.01Q799.71 12.01 797.17 11.54 794.63 11.06 792.52 10.24 790.4 9.42 789.13 8.37 787.86 7.32 787.86 6.15L787.86 6.15Q787.86 5.44 788.93 4.82 789.99 4.2 792.43 3.3ZM795.87-16.41L795.87-16.41Q795.87-13.16 797.29-11.3 798.7-9.45 801.66-9.45L801.66-9.45Q804.64-9.45 806.05-11.3 807.47-13.16 807.47-16.41L807.47-16.41Q807.47-19.68 806.05-21.48 804.64-23.29 801.66-23.29L801.66-23.29Q798.7-23.29 797.29-21.48 795.87-19.68 795.87-16.41ZM822.94-12.5L822.94-12.5Q822.94-16.38 824.59-19.37 826.24-22.36 829.33-24.06 832.42-25.76 836.74-25.76L836.74-25.76Q839.99-25.76 842.32-24.41 844.65-23.07 845.89-20.9 847.14-18.73 847.14-16.21L847.14-16.21Q847.14-15.06 846.85-13.92 846.55-12.77 845.74-12.01 844.92-11.25 843.28-11.25L843.28-11.25 828.68-11.25Q829.17-6.86 832.15-4.53 835.13-2.2 839.42-2.2L839.42-2.2Q842.43-2.2 845.67-3.25L845.67-3.25 846.48-1.61Q844.5-0.27 841.96 0.34 839.42 0.95 836.98 0.95L836.98 0.95Q834.3 0.95 831.78 0.11 829.27-0.73 827.28-2.42 825.29-4.1 824.12-6.62 822.94-9.13 822.94-12.5ZM828.63-14.26L841.28-14.26Q841.43-14.75 841.48-15.23 841.52-15.72 841.52-16.26L841.52-16.26Q841.52-17.87 840.83-19.43 840.13-21 838.78-22.02 837.42-23.05 835.44-23.05L835.44-23.05Q832.95-23.05 831.5-21.81 830.05-20.58 829.4-18.58 828.76-16.58 828.63-14.26L828.63-14.26ZM855.83-1.9L855.83-22.56 851.53-22.56 851.53-24.39Q852.21-24.71 853.58-24.93 854.95-25.15 856.54-25.27 858.12-25.39 859.39-25.39L859.39-25.39Q860.39-25.39 860.94-25.23 861.49-25.07 861.49-24.1L861.49-24.1 861.49-22.9Q861.98-23.07 863.54-23.77 865.11-24.46 867.29-25.11 869.48-25.76 871.79-25.76L871.79-25.76Q874.63-25.76 876.07-24.74 877.51-23.73 878.02-21.98 878.53-20.24 878.53-17.99L878.53-17.99 878.53-2.44 882.78-2.44 882.78-0.61Q881.95-0.15 880.05 0.15 878.14 0.44 876.38 0.44L876.38 0.44Q874.9 0.44 873.89 0.01 872.89-0.42 872.89-1.9L872.89-1.9 872.89-17.5Q872.89-19.97 872.23-21.06 871.58-22.14 869.48-22.14L869.48-22.14Q868.47-22.14 867.17-21.94 865.86-21.73 864.61-21.46 863.35-21.19 862.48-20.97 861.61-20.75 861.49-20.7L861.49-20.7 861.49-7.35Q861.49-4.35 861.76-2.69 862.03-1.03 862.18-0.34L862.18-0.34Q861.52 0.02 860.49 0.23 859.47 0.44 858.68 0.44L858.68 0.44Q857.44 0.44 856.63-0.06 855.83-0.56 855.83-1.9L855.83-1.9ZM908.78-23.05L907.05-19.8Q905.44-20.73 903.24-21.79 901.04-22.85 898.89-22.85L898.89-22.85Q896.69-22.85 895.34-21.46 893.98-20.07 893.36-18.01 892.74-15.94 892.74-13.89L892.74-13.89Q892.74-10.69 893.88-8.08 895.01-5.47 897.38-3.93 899.75-2.39 903.38-2.39L903.38-2.39Q906.34-2.39 909.78-3.44L909.78-3.44 910.59-1.81Q908.58-0.46 906.01 0.15 903.43 0.76 900.99 0.76L900.99 0.76Q898.33 0.76 895.84-0.09 893.35-0.93 891.38-2.56 889.42-4.2 888.26-6.58 887.1-8.96 887.1-12.06L887.1-12.06Q887.1-16.33 889.05-19.4 891.01-22.46 894.38-24.11 897.74-25.76 901.99-25.76L901.99-25.76Q902.36-25.76 903.46-25.67 904.56-25.59 905.81-25.35 907.07-25.12 907.99-24.68 908.9-24.24 908.9-23.56L908.9-23.56Q908.9-23.19 908.78-23.05L908.78-23.05ZM914.05-12.5L914.05-12.5Q914.05-16.38 915.7-19.37 917.35-22.36 920.44-24.06 923.52-25.76 927.84-25.76L927.84-25.76Q931.09-25.76 933.42-24.41 935.75-23.07 937-20.9 938.25-18.73 938.25-16.21L938.25-16.21Q938.25-15.06 937.95-13.92 937.66-12.77 936.84-12.01 936.02-11.25 934.39-11.25L934.39-11.25 919.79-11.25Q920.28-6.86 923.25-4.53 926.23-2.2 930.53-2.2L930.53-2.2Q933.53-2.2 936.78-3.25L936.78-3.25 937.59-1.61Q935.61-0.27 933.07 0.34 930.53 0.95 928.09 0.95L928.09 0.95Q925.4 0.95 922.89 0.11 920.37-0.73 918.38-2.42 916.39-4.1 915.22-6.62 914.05-9.13 914.05-12.5ZM919.74-14.26L932.39-14.26Q932.53-14.75 932.58-15.23 932.63-15.72 932.63-16.26L932.63-16.26Q932.63-17.87 931.93-19.43 931.24-21 929.88-22.02 928.53-23.05 926.55-23.05L926.55-23.05Q924.06-23.05 922.61-21.81 921.16-20.58 920.51-18.58 919.86-16.58 919.74-14.26L919.74-14.26Z" opacity="1" transform="matrix(1,0,0,1,0,0)" fill="#daedef" class="slogan-text-1" data-fill-palette-color="secondary" id="text-1"></path></svg></g></svg></g></svg></g></svg></g><g transform="matrix(1,0,0,1,29.408675884664063,0)"><svg viewBox="0 0 150.22264823067184 134.22264823067184" height="134.22264823067184" width="150.22264823067184"><g><svg xmlns="http://www.w3.org/2000/svg" xmlns:xlink="http://www.w3.org/1999/xlink" version="1.1" x="8" y="0" viewBox="1 1 66 66" style="enable-background:new 0 0 68 68;" xml:space="preserve" height="134.22264823067184" width="134.22264823067184" class="icon-icon-0" data-fill-palette-color="accent" id="icon-0"><g fill="#33efff" data-fill-palette-color="accent"><g fill="#33efff" data-fill-palette-color="accent"><path class="" d="M48.5 31.1C49 30.9 49.3 30.6 49.5 30.3 50.6 28.9 50.1 26.9 50 26.6 47.4 16.6 41.5 12.8 32.9 12.9 30.6 12.9 23.5 12.9 18.7 22.1 14.2 30.8 22.9 44.3 24.3 46.4V54C24.3 54.6 24.7 55 25.3 55H40.4C41 55 41.4 54.6 41.4 54V48.7C42.7 49.6 43.9 49.8 44.6 49.8 45.8 49.8 47 49.3 47.8 48.5 48.5 47.8 48.8 46.9 48.8 45.9L48.3 39.7H51.9C52.3 39.7 52.6 39.5 52.8 39.2S53 38.5 52.8 38.2zM26.5 53.1V50.9H39.6V53.1zM47.3 37.8C47 37.8 46.8 37.9 46.6 38.1S46.3 38.6 46.3 38.9L46.9 46.1C46.9 46.5 46.8 46.9 46.5 47.2 46.1 47.6 45.4 47.9 44.8 47.9 43.6 47.9 42.4 47.1 41.4 45.7 41.2 45.3 40.7 45.2 40.3 45.3S39.6 45.8 39.6 46.3V48.9H26.5V46.2C26.5 46 26.4 45.8 26.3 45.6 26.2 45.5 16.4 31.3 20.6 23.1 24.4 15.8 29.5 14.9 33 14.9 40.5 14.9 45.7 17.8 48.2 27.1 48.3 27.5 48.4 28.6 48 29 47.9 29.1 47.7 29.3 47 29.3 46.7 29.3 46.3 29.5 46.1 29.8S45.9 30.5 46.1 30.8L50.2 37.7z" fill="#33efff" data-fill-palette-color="accent"></path></g><g fill="#33efff" data-fill-palette-color="accent"><path class="" d="M67 34C67 31.3 64.9 29.1 62.3 28.8 61.6 24.8 60 21 57.6 17.6 59.4 15.4 59.2 12.4 57.3 10.6 55.4 8.7 52.4 8.5 50.3 10.3 47 8.1 43.1 6.5 39.2 5.8 38.9 3.1 36.7 1 34 1S29.1 3.1 28.8 5.8C24.8 6.5 21 8.1 17.7 10.4 15.5 8.6 12.5 8.8 10.7 10.7 8.9 12.5 8.6 15.6 10.4 17.7 8.1 21 6.5 24.8 5.7 28.8 3.1 29.1 1 31.3 1 34S3.1 38.9 5.7 39.2C6.4 43.2 8 47.1 10.3 50.4 8.6 52.4 8.7 55.5 10.6 57.4 12.4 59.2 15.4 59.5 17.6 57.7 21 60 24.8 61.6 28.8 62.4 29.1 65 31.3 67 34 67S38.9 64.9 39.1 62.3C43.1 61.6 47 60 50.3 57.6 52.5 59.4 55.4 59.1 57.3 57.3 59.2 55.4 59.3 52.4 57.6 50.3 59.9 46.9 61.5 43.1 62.2 39.1 64.9 38.9 67 36.7 67 34M50 50C48.3 51.7 48.1 54.2 49.1 56.1 46.1 58.2 42.6 59.6 39 60.3 38.4 58.2 36.4 56.6 34 56.6S29.7 58.2 29 60.3C25.4 59.6 21.9 58.2 18.9 56.1 20 54.1 19.7 51.6 18 50 16.5 48.5 14 48 11.9 49.1 9.8 46.1 8.4 42.6 7.7 39 9.8 38.3 11.4 36.4 11.4 34.1S9.9 29.8 7.7 29.2C8.4 25.4 9.9 22 12 18.9 14.2 20 16.5 19.5 18.1 18 19.6 16.5 20.1 14.1 19 12 22 9.9 25.5 8.5 29.1 7.8 29.8 9.9 31.7 11.4 34 11.4S38.3 9.9 38.9 7.8C42.5 8.5 46 9.9 49.1 12 48 14.1 48.5 16.5 50 18S53.9 20 56.1 18.9C58.2 21.9 59.6 25.4 60.3 29 58.2 29.7 56.6 31.6 56.6 33.9S58.2 38.2 60.3 38.8C59.6 42.4 58.2 45.9 56.1 48.9 53.9 47.9 51.5 48.4 50 50M65 34C65 35.8 63.6 37.2 61.8 37.2S58.6 35.8 58.6 34 60 30.8 61.8 30.8 65 32.2 65 34M55.9 12.1C57.2 13.4 57.2 15.4 55.9 16.6 54.7 17.8 52.6 17.8 51.4 16.6 50.1 15.3 50.1 13.3 51.4 12.1 52.6 10.8 54.7 10.8 55.9 12.1M34 3C35.8 3 37.2 4.4 37.2 6.2S35.8 9.4 34 9.4 30.8 8 30.8 6.2 32.2 3 34 3M12.1 12.1C13.4 10.8 15.4 10.8 16.6 12.1 17.9 13.4 17.9 15.4 16.6 16.6 15.4 17.8 13.3 17.8 12.1 16.6 10.8 15.4 10.8 13.3 12.1 12.1M3 34C3 32.2 4.4 30.8 6.2 30.8S9.4 32.2 9.4 34 8 37.2 6.2 37.2 3 35.8 3 34M12.1 55.9C10.9 54.7 10.9 52.6 12.1 51.4S15.4 50.1 16.6 51.4C17.8 52.6 17.8 54.7 16.6 55.9S13.3 57.1 12.1 55.9M34 65C32.2 65 30.8 63.6 30.8 61.8S32.2 58.6 34 58.6 37.2 60 37.2 61.8 35.8 65 34 65M55.9 55.9C54.7 57.1 52.6 57.1 51.4 55.9S50.2 52.6 51.4 51.4 54.7 50.1 55.9 51.4C57.2 52.6 57.2 54.7 55.9 55.9" fill="#33efff" data-fill-palette-color="accent"></path></g></g></svg></g></svg></g><g></g></svg></g></svg></g></svg></g><defs></defs></svg><rect width="320" height="360" fill="none" stroke="none" visibility="hidden"></rect></g></svg></g></svg>